<?xml version="1.0" standalone="no"?>
<!DOCTYPE svg PUBLIC "-//W3C//DTD SVG 20010904//EN"
 "http://www.w3.org/TR/2001/REC-SVG-20010904/DTD/svg10.dtd">
<svg version="1.0" xmlns="http://www.w3.org/2000/svg"
 width="1024.000000pt" height="1024.000000pt" viewBox="0 0 1024.000000 1024.000000"
 preserveAspectRatio="xMidYMid meet">
<metadata>
Created by potrace 1.15, written by Peter Selinger 2001-2017
</metadata>
<g transform="translate(0.000000,1024.000000) scale(0.100000,-0.100000)"
fill="#000000" stroke="none">
<path d="M4859 10070 c-1242 -67 -2432 -610 -3296 -1503 -1196 -1237 -1662
-2950 -1258 -4616 403 -1657 1660 -3012 3295 -3552 732 -241 1539 -305 2309
-183 1543 245 2888 1218 3616 2617 306 588 488 1221 546 1902 15 179 15 609 0
790 -84 994 -451 1920 -1065 2689 -682 854 -1610 1451 -2666 1716 -472 119
-981 167 -1481 140z m567 -1150 c1153 -91 2179 -673 2830 -1607 363 -519 579
-1096 660 -1763 25 -201 25 -636 0 -845 -139 -1192 -775 -2203 -1784 -2838
-137 -86 -421 -230 -582 -295 -721 -291 -1551 -348 -2322 -161 -1198 290
-2190 1154 -2648 2304 -247 621 -326 1298 -229 1970 203 1411 1201 2597 2567
3050 473 157 1018 223 1508 185z"/>
<path d="M3355 6900 l-410 -410 330 -332 c182 -183 487 -492 680 -686 l350
-352 -680 -680 -680 -680 408 -407 407 -408 679 679 680 680 681 -675 c375
-371 685 -675 688 -677 4 -1 190 181 415 406 l407 407 -682 675 c-376 371
-684 677 -686 680 -1 3 306 313 683 690 l685 685 -407 407 -408 408 -685 -685
-685 -685 -425 427 c-234 236 -540 544 -680 686 l-255 257 -410 -410z"/>
</g>
</svg>
