<?xml version="1.0" standalone="no"?>
<!DOCTYPE svg PUBLIC "-//W3C//DTD SVG 20010904//EN"
 "http://www.w3.org/TR/2001/REC-SVG-20010904/DTD/svg10.dtd">
<svg version="1.0" xmlns="http://www.w3.org/2000/svg"
 width="1024.000000pt" height="1024.000000pt" viewBox="0 0 1024.000000 1024.000000"
 preserveAspectRatio="xMidYMid meet">
<metadata>
Created by potrace 1.15, written by Peter Selinger 2001-2017
</metadata>
<g transform="translate(0.000000,1024.000000) scale(0.100000,-0.100000)"
fill="#000000" stroke="none">
<path d="M4808 10054 c-3 -2 -38 -6 -79 -9 -41 -2 -95 -6 -122 -9 -26 -3 -68
-8 -95 -11 -158 -18 -261 -34 -292 -46 -14 -5 -49 -11 -79 -14 -30 -4 -62 -10
-72 -15 -9 -5 -19 -7 -22 -4 -3 4 -30 -1 -59 -9 -29 -9 -66 -19 -83 -23 -16
-4 -36 -9 -42 -11 -7 -1 -21 -5 -30 -7 -10 -3 -18 -5 -18 -6 0 -1 -8 -3 -18
-5 -27 -5 -129 -36 -157 -47 -14 -6 -36 -12 -49 -15 -14 -2 -29 -7 -35 -11 -6
-3 -17 -7 -24 -8 -8 -2 -21 -6 -30 -10 -9 -4 -25 -9 -36 -11 -10 -2 -32 -11
-50 -20 -57 -29 -66 -33 -79 -33 -7 0 -31 -9 -52 -20 -22 -12 -47 -22 -55 -24
-44 -9 -70 -19 -70 -27 0 -5 -3 -8 -7 -7 -13 4 -123 -45 -123 -54 0 -4 -7 -8
-15 -8 -21 0 -105 -42 -105 -53 0 -4 -4 -5 -10 -2 -5 3 -10 1 -10 -4 0 -6 -9
-11 -19 -11 -11 0 -26 -7 -34 -15 -8 -8 -17 -11 -21 -8 -3 4 -6 1 -6 -6 0 -7
-4 -10 -9 -6 -6 3 -20 -5 -32 -17 -12 -13 -19 -17 -14 -10 4 8 -10 2 -31 -12
-22 -14 -66 -39 -99 -57 -33 -17 -74 -42 -92 -55 -17 -13 -36 -24 -42 -24 -5
0 -30 -16 -55 -35 -26 -19 -50 -35 -54 -35 -7 0 -53 -36 -83 -65 -9 -8 -21
-15 -27 -15 -6 0 -23 -12 -39 -27 -15 -16 -31 -27 -35 -25 -4 1 -8 -3 -8 -9 0
-5 -4 -7 -10 -4 -5 3 -10 3 -10 -2 0 -4 -30 -30 -67 -58 -37 -27 -79 -60 -93
-72 -14 -12 -56 -48 -95 -79 -91 -75 -166 -144 -157 -145 4 0 -3 -4 -16 -10
-13 -5 -20 -13 -17 -19 4 -6 2 -9 -3 -8 -16 5 -325 -317 -390 -407 -16 -22
-50 -62 -76 -89 -25 -28 -46 -55 -46 -61 0 -5 -9 -16 -21 -23 -12 -7 -19 -16
-16 -19 3 -2 -2 -13 -11 -23 -34 -37 -41 -48 -35 -54 4 -3 1 -6 -5 -6 -10 0
-53 -57 -63 -85 -2 -5 -9 -17 -16 -25 -44 -54 -73 -94 -73 -102 0 -5 -9 -18
-19 -29 -11 -12 -30 -42 -43 -67 -12 -26 -27 -50 -33 -54 -5 -4 -7 -8 -3 -8 5
0 -1 -9 -12 -20 -11 -11 -22 -31 -26 -45 -3 -14 -10 -25 -14 -25 -5 0 -12 -10
-16 -22 -3 -13 -13 -31 -22 -40 -8 -10 -12 -18 -8 -18 4 0 -2 -13 -14 -30 -12
-16 -18 -30 -13 -30 4 0 3 -4 -2 -8 -16 -11 -104 -189 -98 -196 4 -3 1 -6 -5
-6 -9 0 -26 -34 -25 -50 1 -3 -11 -25 -25 -50 -15 -25 -26 -47 -26 -50 2 -7
-14 -48 -32 -84 -8 -16 -14 -33 -14 -37 0 -4 -5 -20 -12 -36 -6 -15 -10 -32
-9 -37 1 -5 -2 -12 -7 -15 -8 -5 -49 -104 -53 -129 -2 -10 -5 -19 -25 -82 -10
-30 -19 -57 -19 -60 -1 -3 -7 -25 -14 -50 -7 -25 -13 -46 -12 -47 0 -2 -6 -21
-14 -43 -8 -22 -12 -40 -8 -40 3 0 1 -6 -4 -12 -6 -7 -9 -21 -8 -30 2 -10 0
-18 -5 -18 -8 0 -22 -54 -25 -96 -1 -11 -5 -26 -9 -33 -4 -7 -9 -29 -11 -49
-1 -20 -5 -44 -9 -52 -3 -8 -8 -31 -10 -50 -3 -19 -5 -35 -6 -35 -3 0 -18 -88
-26 -150 -7 -57 -12 -90 -18 -130 -6 -42 -15 -123 -22 -190 -25 -256 -15 -824
17 -1018 15 -91 19 -127 19 -156 0 -12 3 -28 7 -34 4 -7 8 -36 10 -66 2 -30 6
-57 11 -60 4 -3 7 -16 6 -28 -1 -13 2 -23 7 -23 5 0 6 -7 3 -15 -3 -8 -2 -19
2 -26 4 -7 9 -30 11 -52 2 -22 8 -46 13 -52 5 -7 7 -15 4 -18 -4 -4 -2 -19 5
-34 6 -15 13 -39 15 -53 3 -14 5 -25 6 -25 2 0 7 -19 15 -57 3 -15 9 -38 15
-52 5 -13 6 -27 3 -30 -4 -3 -1 -6 5 -6 6 0 9 -7 6 -15 -4 -8 -1 -15 6 -15 6
0 9 -4 6 -9 -6 -9 70 -250 100 -316 10 -22 18 -42 19 -45 5 -25 33 -95 56
-138 15 -29 33 -72 40 -97 7 -24 17 -41 23 -38 5 3 6 1 3 -5 -7 -10 20 -71 36
-83 5 -3 9 -9 8 -12 -1 -18 22 -67 32 -67 6 0 8 -3 4 -6 -6 -6 70 -155 85
-165 6 -3 10 -10 10 -15 0 -15 26 -66 58 -114 16 -25 33 -52 37 -60 16 -34 91
-149 131 -201 23 -31 42 -61 42 -67 0 -7 5 -12 10 -12 6 0 10 -7 10 -15 0 -8
4 -15 8 -15 4 0 16 -14 26 -31 10 -18 26 -39 35 -49 9 -9 23 -27 31 -40 8 -12
20 -28 25 -34 6 -6 29 -36 51 -66 23 -30 68 -82 100 -115 31 -33 58 -64 58
-68 1 -4 16 -21 35 -37 18 -17 31 -30 27 -30 -4 0 46 -53 109 -117 64 -65 121
-117 127 -115 5 1 7 -2 3 -8 -3 -6 4 -14 17 -19 13 -6 19 -10 15 -10 -7 -1 25
-31 107 -101 16 -14 39 -35 52 -47 13 -12 24 -20 24 -19 0 2 21 -16 47 -40 25
-24 52 -44 59 -44 7 0 17 -6 21 -13 10 -15 106 -93 110 -89 2 1 16 -9 31 -23
15 -14 35 -28 45 -31 9 -3 17 -10 17 -15 0 -6 4 -8 9 -5 5 4 11 3 13 -1 4 -11
115 -92 135 -100 10 -4 27 -15 37 -25 11 -10 26 -18 33 -18 7 0 13 -5 13 -11
0 -5 4 -8 9 -5 5 4 11 3 13 -1 3 -8 105 -73 114 -73 2 0 22 -11 44 -25 22 -14
40 -23 40 -20 0 3 10 -3 22 -15 12 -11 25 -21 30 -21 18 -3 25 -6 68 -29 25
-13 48 -23 53 -22 4 1 7 -3 7 -9 0 -5 5 -7 10 -4 6 3 10 1 10 -5 0 -6 5 -8 10
-5 6 3 10 1 10 -6 0 -7 3 -9 6 -6 4 3 18 -3 32 -13 13 -11 33 -20 43 -20 11 0
19 -4 19 -10 0 -5 6 -10 14 -10 8 0 31 -9 50 -21 20 -11 41 -22 48 -23 16 -4
64 -22 103 -41 16 -7 33 -11 37 -9 4 3 8 1 8 -5 0 -5 15 -12 33 -16 17 -4 51
-16 73 -26 23 -11 50 -21 60 -23 40 -8 49 -11 55 -18 3 -5 17 -9 32 -10 15 -1
27 -6 27 -11 0 -5 7 -7 15 -4 8 4 17 2 20 -3 5 -8 56 -25 105 -35 8 -2 27 -8
43 -14 15 -6 27 -9 27 -7 0 2 28 -5 61 -15 34 -11 64 -17 67 -14 3 3 11 0 18
-5 6 -6 16 -10 20 -9 5 1 16 0 24 -4 13 -5 47 -12 105 -21 11 -2 27 -6 35 -9
25 -9 112 -26 160 -31 25 -3 56 -7 70 -10 92 -18 162 -26 370 -43 114 -9 685
-9 785 0 44 4 103 10 130 12 76 8 119 13 125 15 3 1 16 3 30 5 14 1 27 3 30 5
3 1 19 3 35 5 17 2 46 6 65 9 19 3 53 8 75 11 21 3 57 10 80 17 22 6 49 12 60
14 59 8 140 26 149 31 6 4 17 8 26 9 57 9 150 34 174 46 11 6 32 12 48 15 15
2 40 10 54 18 15 7 33 11 40 8 8 -3 14 -1 14 4 0 5 11 10 24 11 13 1 37 7 52
13 34 14 31 13 67 23 15 5 27 12 27 17 0 5 3 8 8 7 4 -1 18 4 31 11 13 7 20 8
17 2 -4 -5 6 -4 21 4 15 8 32 15 37 15 5 0 30 10 55 21 91 43 127 58 164 70
20 7 37 16 37 20 0 4 14 10 30 14 17 4 36 13 44 20 12 12 126 68 209 103 15 6
27 16 27 22 0 5 3 9 8 8 14 -3 72 28 65 35 -3 4 -1 8 5 8 7 1 15 2 20 3 4 0
30 16 58 34 28 17 54 32 58 32 10 0 87 52 116 78 14 12 29 22 35 22 5 0 23 11
39 25 16 13 37 27 47 30 11 4 19 11 19 16 0 5 7 9 15 9 8 0 15 4 15 8 0 4 14
16 30 26 17 9 57 38 89 64 32 26 76 61 97 77 21 17 49 40 61 52 13 12 23 20
23 18 0 -2 17 12 38 30 20 19 61 56 90 82 94 85 274 263 265 263 -4 0 7 9 25
20 17 11 32 23 32 28 0 4 21 31 48 58 60 64 82 92 82 105 0 5 5 7 10 4 6 -3
10 0 10 7 0 7 11 22 25 32 14 10 25 22 25 27 0 4 16 25 36 47 20 22 34 43 32
47 -1 3 5 11 15 16 9 6 17 14 17 19 0 5 10 20 23 33 12 14 38 46 57 71 33 43
48 67 95 145 11 19 30 45 42 59 13 13 20 28 18 32 -3 4 2 10 10 14 8 3 15 12
15 21 0 8 5 15 12 15 6 0 8 3 5 7 -4 3 -1 13 7 22 25 28 114 189 108 195 -3 3
0 6 6 6 7 0 12 7 12 15 0 8 5 15 12 15 6 0 8 3 5 6 -4 4 3 20 14 35 11 16 17
29 12 29 -4 0 -3 4 3 8 19 13 202 402 188 402 -2 0 7 22 21 50 14 27 25 52 25
55 -1 3 9 27 20 52 12 26 22 59 24 73 2 14 13 47 25 73 12 27 20 51 17 55 -3
3 -2 10 3 16 13 16 61 178 55 187 -2 4 1 11 7 14 5 4 8 13 5 21 -3 7 -1 16 5
20 6 3 8 12 5 20 -3 7 -1 16 5 20 6 3 8 12 5 20 -3 7 -1 16 4 19 4 3 11 24 15
48 4 23 13 64 21 91 7 27 11 53 8 58 -3 5 -1 15 5 21 5 7 10 22 11 32 0 28 7
67 13 85 3 8 5 22 6 30 0 19 8 78 15 110 7 35 17 126 21 187 2 28 5 55 8 60 2
4 4 26 5 48 1 22 4 108 8 190 9 179 9 235 1 425 -8 190 -15 296 -23 345 -8 44
-10 60 -17 125 -3 25 -8 70 -12 100 -3 30 -10 59 -14 65 -4 5 -6 20 -5 33 0
12 -2 22 -7 22 -5 0 -6 7 -3 15 3 8 2 20 -2 27 -5 7 -10 24 -12 38 -1 14 -10
59 -18 100 -9 41 -18 86 -20 100 -3 13 -10 30 -15 37 -6 7 -8 17 -4 22 3 6 0
21 -7 33 -7 13 -11 26 -10 30 1 3 -6 30 -15 60 -9 29 -17 55 -18 58 -1 3 -5
13 -10 23 -4 10 -8 26 -9 35 -2 31 -30 112 -39 112 -4 0 -5 5 -2 10 4 6 0 24
-9 40 -8 16 -17 43 -21 60 -4 16 -11 30 -16 30 -6 0 -8 4 -4 9 6 10 -25 84
-38 89 -4 2 -5 7 -2 12 3 5 -13 47 -35 94 -22 46 -40 87 -40 91 0 14 -185 380
-200 395 -3 3 -20 34 -39 70 -19 36 -37 67 -40 70 -14 11 -49 67 -55 88 -4 12
-12 22 -17 22 -5 0 -9 7 -9 15 0 8 -4 15 -9 15 -5 0 -14 12 -20 28 -7 15 -30
52 -52 82 -22 30 -51 71 -64 92 -13 20 -35 47 -49 61 -14 14 -22 28 -19 31 4
3 1 6 -5 6 -6 0 -22 18 -35 40 -13 22 -27 37 -30 33 -4 -3 -7 -1 -7 6 0 14 6
7 -103 134 -17 21 -53 61 -79 88 -27 28 -48 53 -48 56 0 7 -252 254 -340 333
-39 36 -78 71 -86 78 -8 7 -14 11 -14 8 0 -4 -15 9 -34 29 -19 19 -39 35 -45
35 -6 0 -15 9 -21 20 -6 11 -15 20 -20 20 -9 0 -34 18 -70 50 -9 8 -38 31 -66
50 -56 39 -57 40 -104 77 -19 16 -30 22 -26 15 7 -11 4 -11 -12 -1 -12 7 -19
16 -17 19 3 4 -8 13 -23 21 -15 8 -45 26 -66 41 -21 16 -45 28 -51 28 -7 0
-16 7 -19 16 -3 8 -10 13 -16 9 -5 -3 -18 3 -30 15 -11 11 -26 21 -32 22 -7 2
-17 8 -23 14 -18 21 -142 84 -150 76 -5 -4 -5 -2 -1 5 5 10 -24 27 -44 26 -3
-1 -16 7 -30 16 -38 27 -188 100 -193 95 -2 -2 -10 2 -17 11 -7 8 -17 15 -22
15 -6 0 -32 11 -59 25 -27 13 -49 22 -49 18 0 -3 -6 0 -13 6 -8 6 -17 8 -20 4
-4 -3 -7 -2 -7 3 0 5 -10 10 -22 11 -11 1 -25 8 -29 15 -5 7 -9 9 -9 4 0 -5
-7 -3 -15 4 -8 7 -15 9 -15 4 0 -5 -4 -4 -8 1 -6 9 -61 33 -87 38 -5 2 -14 5
-20 9 -8 5 -81 28 -105 33 -3 0 -14 6 -26 12 -11 7 -33 14 -47 17 -15 2 -30 7
-35 10 -5 3 -19 7 -33 10 -13 2 -49 13 -79 24 -30 11 -58 20 -62 21 -5 0 -9 1
-10 2 -5 1 -33 8 -56 13 -12 3 -25 7 -30 9 -4 3 -25 8 -47 12 -45 7 -53 9 -75
18 -8 3 -22 6 -30 6 -28 1 -155 26 -165 32 -5 3 -26 6 -45 7 -19 2 -49 7 -67
13 -18 6 -40 10 -50 9 -10 -1 -20 -1 -23 0 -3 1 -18 4 -35 5 -16 2 -43 5 -60
8 -16 3 -59 8 -95 12 -36 3 -85 9 -110 12 -58 7 -726 14 -732 7z m727 -1189
c444 -52 827 -161 1210 -344 793 -380 1434 -1031 1799 -1826 441 -963 458
-2081 45 -3048 -103 -241 -177 -378 -324 -602 -510 -774 -1299 -1340 -2193
-1571 -1180 -305 -2425 -29 -3355 744 -420 349 -766 792 -997 1274 -489 1024
-490 2224 -4 3246 370 779 1001 1411 1779 1783 445 212 912 331 1430 363 117
7 482 -4 610 -19z"/>
<path d="M5760 5584 c-767 -756 -1398 -1373 -1401 -1372 -4 2 -253 257 -554
568 -301 311 -586 605 -634 653 l-87 88 -415 -403 c-228 -221 -414 -405 -414
-408 0 -4 430 -450 956 -991 525 -541 994 -1024 1040 -1073 l86 -90 30 25 c17
13 837 818 1822 1788 l1792 1765 -128 130 c-296 303 -688 696 -693 695 -3 0
-633 -619 -1400 -1375z"/>
</g>
</svg>
